<svg width="203" height="25" viewBox="0 0 203 25" fill="none" xmlns="http://www.w3.org/2000/svg">
<path d="M67.092 3.688L64.644 3.652L62.628 4.336C62.556 4.336 62.316 4.72 61.908 5.488C61.74 5.872 61.536 6.292 61.296 6.748C61.08 7.204 60.924 7.492 60.828 7.612L60 13.012C59.952 13.012 59.784 13.42 59.496 14.236C59.376 14.644 59.256 14.98 59.136 15.244C59.016 15.484 58.92 15.676 58.848 15.82C58.848 15.988 59.076 16.444 59.532 17.188L60.396 16.684L61.188 18.232L60.72 19.132C60.792 19.252 60.852 19.36 60.9 19.456C60.948 19.528 60.996 19.6 61.044 19.672L61.152 19.888C61.152 19.96 61.296 20.152 61.584 20.464C61.848 20.8 62.064 20.968 62.232 20.968C62.496 20.968 62.688 20.92 62.808 20.824C62.952 20.728 63.06 20.68 63.132 20.68C63.204 20.68 63.288 20.728 63.384 20.824C63.48 20.896 63.564 20.944 63.636 20.968C64.764 21.112 65.748 20.86 66.588 20.212C66.852 20.164 67.2 20.116 67.632 20.068C68.064 20.02 68.424 19.84 68.712 19.528C68.808 19.504 68.928 19.432 69.072 19.312C69.216 19.192 69.372 19.06 69.54 18.916C69.708 18.748 69.888 18.58 70.08 18.412C70.272 18.244 70.476 18.1 70.692 17.98C70.812 17.908 70.908 17.968 70.98 18.16C71.076 18.352 71.172 18.424 71.268 18.376L71.628 18.808L71.016 20.644L69.648 21.724L67.704 22.264C67.104 22.456 66.456 22.66 65.76 22.876C65.088 23.092 64.596 23.224 64.284 23.272C64.02 23.296 63.732 23.356 63.42 23.452C63.108 23.524 62.808 23.608 62.52 23.704C62.232 23.776 61.98 23.848 61.764 23.92C61.548 23.968 61.416 23.992 61.368 23.992C60.456 23.992 59.796 24.004 59.388 24.028C58.98 24.028 58.68 24.028 58.488 24.028L55.248 21.652C55.2 21.196 54.84 20.476 54.168 19.492C53.52 18.604 53.196 18.052 53.196 17.836L53.52 14.884C53.592 14.38 53.652 13.864 53.7 13.336C53.748 12.784 53.784 12.28 53.808 11.824C53.832 11.368 53.844 10.972 53.844 10.636C53.868 10.3 53.88 10.096 53.88 10.024C54.072 9.928 54.348 9.7 54.708 9.34C55.068 8.956 55.392 8.428 55.68 7.756C56.28 6.508 56.496 5.404 56.328 4.444C56.448 4.396 56.784 4.312 57.336 4.192C57.888 4.072 58.452 3.892 59.028 3.652C59.604 3.436 60.048 3.268 60.36 3.148C60.672 3.028 60.852 2.956 60.9 2.932C60.924 2.908 61.02 2.872 61.188 2.824C61.38 2.776 61.584 2.74 61.8 2.716C62.04 2.668 62.268 2.632 62.484 2.608C62.7 2.56 62.856 2.536 62.952 2.536L64.068 1.456L67.308 1.42L68.1 1.924L67.884 3.076L67.092 3.688ZM92.2009 1.888L92.7769 1.708L93.6769 1.384L95.7289 2.032L96.0169 2.788C95.6809 3.82 95.3809 4.84 95.1169 5.848C94.8529 6.856 94.8049 7.948 94.9729 9.124C94.9249 9.22 94.8649 9.388 94.7929 9.628C94.7449 9.868 94.7089 10.12 94.6849 10.384C94.6849 10.624 94.7089 10.864 94.7569 11.104C94.8289 11.32 94.9609 11.464 95.1529 11.536L94.6489 15.532L93.7489 19.384L92.2009 23.056C92.0809 23.272 91.7569 23.452 91.2289 23.596C90.7249 23.74 90.0409 23.86 89.1769 23.956C88.3369 24.028 87.3529 24.076 86.2249 24.1C85.1209 24.124 83.9089 24.124 82.5889 24.1L81.3289 23.272H80.1409C79.8529 23.272 79.2409 22.804 78.3049 21.868C78.0649 21.628 77.8609 21.424 77.6929 21.256C77.5249 21.064 77.3809 20.908 77.2609 20.788C77.1889 20.692 77.0809 20.572 76.9369 20.428C76.9369 20.308 76.9129 20.092 76.8649 19.78C76.8409 19.444 76.7689 19.024 76.6489 18.52C76.5769 18.04 76.4569 17.704 76.2889 17.512C76.1209 17.296 76.0249 17.128 76.0009 17.008C75.9769 16.912 75.9769 16.744 76.0009 16.504C76.0489 16.24 76.0729 15.988 76.0729 15.748C76.0969 15.484 76.0849 15.256 76.0369 15.064C76.0129 14.872 75.9169 14.776 75.7489 14.776L75.9649 12.652C76.0849 12.316 76.1689 11.848 76.2169 11.248C76.2889 10.624 76.3129 9.988 76.2889 9.34C76.2649 8.716 76.2649 8.26 76.2889 7.972C76.3129 7.684 76.3849 7.36 76.5049 7L76.7929 6.028C77.0329 5.884 77.1889 5.716 77.2609 5.524C77.3569 5.308 77.3929 5.104 77.3689 4.912C77.3689 4.696 77.3209 4.516 77.2249 4.372C77.1289 4.204 77.0209 4.096 76.9009 4.048C76.7089 4 76.6129 3.868 76.6129 3.652C76.6369 3.412 76.6729 3.292 76.7209 3.292C76.7689 3.028 76.7689 2.824 76.7209 2.68C76.6969 2.632 76.6849 2.2 76.6849 1.384L77.4769 1.06C77.7649 1.06 78.0649 0.999999 78.3769 0.879999C78.6889 0.76 79.0249 0.711999 79.3849 0.735999C79.5769 0.735999 79.8289 0.759999 80.1409 0.807998C80.4529 0.855999 80.7649 0.915999 81.0769 0.987998C81.4129 1.036 81.7129 1.084 81.9769 1.132C82.2649 1.18 82.4809 1.216 82.6249 1.24L83.0929 1.672C83.0209 1.936 82.9729 2.152 82.9489 2.32C82.9249 2.488 82.9129 2.632 82.9129 2.752C82.9129 2.848 82.9369 2.968 82.9849 3.112L83.1289 5.128C83.1289 5.128 83.1049 5.2 83.0569 5.344C83.0089 5.416 82.9609 5.512 82.9129 5.632C82.8649 5.728 82.8169 5.848 82.7689 5.992C82.6489 6.28 82.5409 6.544 82.4449 6.784C82.3729 7 82.3249 7.216 82.3009 7.432C82.2769 7.552 82.2649 7.804 82.2649 8.188C82.2889 8.548 82.3369 9.028 82.4089 9.628C82.4329 9.916 82.4449 10.192 82.4449 10.456C82.4689 10.696 82.4809 10.912 82.4809 11.104V11.716C82.1929 11.884 82.0609 12.184 82.0849 12.616C82.1089 13.048 82.1689 13.528 82.2649 14.056C82.2889 14.152 82.2649 14.296 82.1929 14.488C82.1449 14.656 82.0849 14.872 82.0129 15.136C81.9409 15.4 81.8809 15.7 81.8329 16.036C81.7849 16.372 81.7849 16.756 81.8329 17.188C81.8809 17.62 81.9169 18.016 81.9409 18.376C81.9649 18.712 81.9889 19.012 82.0129 19.276C82.0369 19.42 82.0489 19.564 82.0489 19.708C82.0489 19.852 82.0489 19.984 82.0489 20.104L83.5969 20.68L88.1329 21.508L89.6089 20.716C89.8489 20.74 90.0649 20.596 90.2569 20.284C90.4729 19.972 90.6289 19.66 90.7249 19.348L91.7329 14.128L91.1569 11.716L91.5889 3.184L92.2009 1.888ZM100.566 22.66C100.59 22.54 100.602 22.432 100.602 22.336C100.626 22.216 100.65 22.096 100.674 21.976C100.818 20.968 100.89 20.284 100.89 19.924C100.89 19.852 100.866 19.732 100.818 19.564C100.794 19.396 100.77 19.276 100.746 19.204L101.07 11.176C100.95 11.008 100.926 10.792 100.998 10.528C101.07 10.24 101.178 10.06 101.322 9.988C101.418 9.652 101.55 9.268 101.718 8.836C101.91 8.404 101.982 7.912 101.934 7.36C101.91 7.096 101.934 6.88 102.006 6.712C102.078 6.52 102.138 6.4 102.186 6.352L102.474 6.064C102.666 5.872 102.774 5.704 102.798 5.56C102.822 5.392 102.798 5.236 102.726 5.092C102.654 4.948 102.558 4.84 102.438 4.768C102.342 4.672 102.246 4.6 102.15 4.552C102.078 4.48 102.042 4.432 102.042 4.408C102.09 4.264 102.114 4.144 102.114 4.048C102.114 3.952 102.042 3.844 101.898 3.724L101.97 2.86C102.09 2.692 102.306 2.608 102.618 2.608C102.954 2.584 103.218 2.572 103.41 2.572C103.482 2.572 103.602 2.572 103.77 2.572C103.938 2.548 104.13 2.536 104.346 2.536L104.994 2.5C105.114 2.476 105.21 2.464 105.282 2.464C105.378 2.464 105.462 2.464 105.534 2.464L105.93 2.284C106.098 2.188 106.23 2.14 106.326 2.14C106.398 2.14 106.53 2.176 106.722 2.248C106.938 2.296 107.166 2.392 107.406 2.536L107.226 6.028L106.866 9.088C106.866 9.184 106.806 9.388 106.686 9.7C106.566 9.988 106.446 10.228 106.326 10.42C106.278 10.468 106.254 10.564 106.254 10.708C106.254 10.828 106.254 10.972 106.254 11.14C106.278 11.284 106.29 11.428 106.29 11.572C106.314 11.716 106.314 11.824 106.29 11.896L106.038 14.524C106.038 14.572 106.014 14.62 105.966 14.668C105.942 14.692 105.906 14.776 105.858 14.92C105.834 15.04 105.798 15.22 105.75 15.46C105.702 15.7 105.666 16.036 105.642 16.468C105.594 17.38 105.546 18.016 105.498 18.376C105.45 18.736 105.426 18.94 105.426 18.988C105.426 19.228 105.498 19.396 105.642 19.492C105.81 19.588 105.894 19.732 105.894 19.924C105.798 20.02 105.822 20.2 105.966 20.464C106.134 20.728 106.422 20.896 106.83 20.968C107.238 21.04 107.694 21.016 108.198 20.896C108.702 20.752 109.254 20.656 109.854 20.608C110.07 20.608 110.202 20.632 110.25 20.68C110.322 20.728 110.382 20.788 110.43 20.86C110.502 20.908 110.61 20.968 110.754 21.04C110.922 21.088 111.222 21.124 111.654 21.148C111.75 21.148 111.93 21.076 112.194 20.932C112.482 20.788 112.602 20.56 112.554 20.248C112.746 20.248 112.986 20.212 113.274 20.14C113.586 20.068 113.898 20.008 114.21 19.96C114.522 19.912 114.798 19.912 115.038 19.96C115.278 19.984 115.434 20.104 115.506 20.32L115.65 20.86C115.626 20.908 115.614 20.968 115.614 21.04C115.614 21.088 115.602 21.148 115.578 21.22C115.554 21.34 115.518 21.508 115.47 21.724C115.422 21.916 115.374 22.144 115.326 22.408C114.822 22.456 114.546 22.468 114.498 22.444C114.45 22.42 114.402 22.408 114.354 22.408C114.282 22.408 114.162 22.456 113.994 22.552C113.85 22.624 113.73 22.684 113.634 22.732C113.49 22.756 113.25 22.792 112.914 22.84C112.602 22.888 112.206 22.936 111.726 22.984C111.462 23.032 111.234 23.068 111.042 23.092C110.874 23.092 110.73 23.104 110.61 23.128C110.514 23.152 110.394 23.164 110.25 23.164C110.226 23.164 110.142 23.176 109.998 23.2C109.854 23.2 109.686 23.2 109.494 23.2H108.414C107.934 23.152 107.586 23.116 107.37 23.092C107.178 23.068 107.022 23.068 106.902 23.092C106.806 23.092 106.71 23.128 106.614 23.2C106.542 23.248 106.374 23.344 106.11 23.488C106.014 23.512 105.834 23.524 105.57 23.524H104.022C103.83 23.5 103.674 23.488 103.554 23.488C103.458 23.464 103.35 23.44 103.23 23.416L101.826 23.848C101.49 23.8 101.226 23.656 101.034 23.416C100.842 23.176 100.686 22.924 100.566 22.66ZM130.732 5.236C130.492 5.236 130.216 5.236 129.904 5.236C129.592 5.212 129.232 5.188 128.824 5.164C128.128 5.14 127.492 5.128 126.916 5.128C126.34 5.104 125.956 5.068 125.764 5.02V7.756C125.428 8.02 125.188 8.548 125.044 9.34C124.852 11.716 124.732 13.624 124.684 15.064C124.636 16.48 124.624 17.584 124.648 18.376C124.672 18.856 124.696 19.264 124.72 19.6C124.744 19.912 124.78 20.164 124.828 20.356L125.224 22.264L125.044 22.552L120.688 23.524H120.58C120.532 23.524 120.472 23.536 120.4 23.56C120.352 23.56 120.304 23.56 120.256 23.56L119.068 22.732C119.068 22.708 119.08 22.696 119.104 22.696C119.128 22.672 119.152 22.636 119.176 22.588C119.2 22.516 119.224 22.408 119.248 22.264C119.272 22.096 119.284 21.868 119.284 21.58C119.284 21.34 119.284 21.172 119.284 21.076C119.308 20.98 119.296 20.824 119.248 20.608C119.2 20.32 119.2 19.672 119.248 18.664C119.272 17.656 119.104 17.152 118.744 17.152C118.792 16.888 118.816 16.576 118.816 16.216C118.84 15.856 118.864 15.52 118.888 15.208C118.912 15.016 118.924 14.836 118.924 14.668C118.924 14.476 118.924 14.284 118.924 14.092C118.948 14.068 118.96 14.044 118.96 14.02C118.984 13.996 119.008 13.972 119.032 13.948L119.068 13.912C119.188 13.72 119.248 13.576 119.248 13.48C119.248 13.36 119.296 13.096 119.392 12.688V11.14C119.848 11.212 119.944 10.828 119.68 9.988C119.464 9.076 119.428 8.62 119.572 8.62C119.644 8.308 119.716 7.948 119.788 7.54C119.836 7.204 119.884 6.844 119.932 6.46C119.98 6.052 120.028 5.644 120.076 5.236L119.932 5.128C119.764 5.272 119.56 5.32 119.32 5.272C119.104 5.224 118.9 5.188 118.708 5.164C118.156 5.236 117.688 5.296 117.304 5.344C116.92 5.392 116.608 5.476 116.368 5.596C116.224 5.644 116.092 5.68 115.972 5.704C115.852 5.728 115.792 5.896 115.792 6.208L113.74 6.64L113.092 6.172C112.996 5.932 112.912 5.704 112.84 5.488C112.768 5.248 112.72 4.96 112.696 4.624L113.128 3.58C113.464 3.532 113.728 3.508 113.92 3.508C114.136 3.508 114.292 3.52 114.388 3.544C114.508 3.544 114.592 3.556 114.64 3.58C114.688 3.604 114.736 3.616 114.784 3.616C115.048 3.496 115.324 3.388 115.612 3.292C115.9 3.172 116.236 3.064 116.62 2.968C117.028 2.872 117.496 2.788 118.024 2.716C118.576 2.62 119.236 2.524 120.004 2.428L123.28 2.284L123.64 2.572C123.76 2.644 123.892 2.716 124.036 2.788C124.18 2.836 124.324 2.86 124.468 2.86C124.636 2.884 124.792 2.824 124.936 2.68C124.984 2.632 125.032 2.56 125.08 2.464C125.272 2.416 125.584 2.416 126.016 2.464C126.472 2.488 127.156 2.572 128.068 2.716C129.652 2.98 130.696 3.124 131.2 3.148L131.416 3.508V4.696L130.732 5.236ZM151.052 1.888L151.628 1.708L152.528 1.384L154.58 2.032L154.868 2.788C154.532 3.82 154.232 4.84 153.968 5.848C153.704 6.856 153.656 7.948 153.824 9.124C153.776 9.22 153.716 9.388 153.644 9.628C153.596 9.868 153.56 10.12 153.536 10.384C153.536 10.624 153.56 10.864 153.608 11.104C153.68 11.32 153.812 11.464 154.004 11.536L153.5 15.532L152.6 19.384L151.052 23.056C150.932 23.272 150.608 23.452 150.08 23.596C149.576 23.74 148.892 23.86 148.028 23.956C147.188 24.028 146.204 24.076 145.076 24.1C143.972 24.124 142.76 24.124 141.44 24.1L140.18 23.272H138.992C138.704 23.272 138.092 22.804 137.156 21.868C136.916 21.628 136.712 21.424 136.544 21.256C136.376 21.064 136.232 20.908 136.112 20.788C136.04 20.692 135.932 20.572 135.788 20.428C135.788 20.308 135.764 20.092 135.716 19.78C135.692 19.444 135.62 19.024 135.5 18.52C135.428 18.04 135.308 17.704 135.14 17.512C134.972 17.296 134.876 17.128 134.852 17.008C134.828 16.912 134.828 16.744 134.852 16.504C134.9 16.24 134.924 15.988 134.924 15.748C134.948 15.484 134.936 15.256 134.888 15.064C134.864 14.872 134.768 14.776 134.6 14.776L134.816 12.652C134.936 12.316 135.02 11.848 135.068 11.248C135.14 10.624 135.164 9.988 135.14 9.34C135.116 8.716 135.116 8.26 135.14 7.972C135.164 7.684 135.236 7.36 135.356 7L135.644 6.028C135.884 5.884 136.04 5.716 136.112 5.524C136.208 5.308 136.244 5.104 136.22 4.912C136.22 4.696 136.172 4.516 136.076 4.372C135.98 4.204 135.872 4.096 135.752 4.048C135.56 4 135.464 3.868 135.464 3.652C135.488 3.412 135.524 3.292 135.572 3.292C135.62 3.028 135.62 2.824 135.572 2.68C135.548 2.632 135.536 2.2 135.536 1.384L136.328 1.06C136.616 1.06 136.916 0.999999 137.228 0.879999C137.54 0.76 137.876 0.711999 138.236 0.735999C138.428 0.735999 138.68 0.759999 138.992 0.807998C139.304 0.855999 139.616 0.915999 139.928 0.987998C140.264 1.036 140.564 1.084 140.828 1.132C141.116 1.18 141.332 1.216 141.476 1.24L141.944 1.672C141.872 1.936 141.824 2.152 141.8 2.32C141.776 2.488 141.764 2.632 141.764 2.752C141.764 2.848 141.788 2.968 141.836 3.112L141.98 5.128C141.98 5.128 141.956 5.2 141.908 5.344C141.86 5.416 141.812 5.512 141.764 5.632C141.716 5.728 141.668 5.848 141.62 5.992C141.5 6.28 141.392 6.544 141.296 6.784C141.224 7 141.176 7.216 141.152 7.432C141.128 7.552 141.116 7.804 141.116 8.188C141.14 8.548 141.188 9.028 141.26 9.628C141.284 9.916 141.296 10.192 141.296 10.456C141.32 10.696 141.332 10.912 141.332 11.104V11.716C141.044 11.884 140.912 12.184 140.936 12.616C140.96 13.048 141.02 13.528 141.116 14.056C141.14 14.152 141.116 14.296 141.044 14.488C140.996 14.656 140.936 14.872 140.864 15.136C140.792 15.4 140.732 15.7 140.684 16.036C140.636 16.372 140.636 16.756 140.684 17.188C140.732 17.62 140.768 18.016 140.792 18.376C140.816 18.712 140.84 19.012 140.864 19.276C140.888 19.42 140.9 19.564 140.9 19.708C140.9 19.852 140.9 19.984 140.9 20.104L142.448 20.68L146.984 21.508L148.46 20.716C148.7 20.74 148.916 20.596 149.108 20.284C149.324 19.972 149.48 19.66 149.576 19.348L150.584 14.128L150.008 11.716L150.44 3.184L151.052 1.888ZM164.133 23.38L163.701 23.524C163.365 23.644 162.969 23.728 162.513 23.776C162.081 23.8 161.805 23.812 161.685 23.812C161.613 23.812 161.445 23.8 161.181 23.776C160.941 23.728 160.761 23.704 160.641 23.704C160.569 23.704 160.473 23.764 160.353 23.884L158.733 23.308C158.733 23.188 158.733 23.08 158.733 22.984C158.757 22.888 158.781 22.78 158.805 22.66C158.853 22.324 158.889 22.012 158.913 21.724C158.961 21.412 158.961 21.124 158.913 20.86C159.105 20.668 159.129 20.08 158.985 19.096C158.841 18.088 158.769 17.452 158.769 17.188C158.769 17.116 158.793 16.924 158.841 16.612C158.889 16.3 158.937 16.024 158.985 15.784C159.009 15.712 159.057 15.616 159.129 15.496C159.225 15.376 159.273 15.244 159.273 15.1C159.225 14.404 159.249 13.84 159.345 13.408C159.465 12.952 159.501 12.496 159.453 12.04C159.429 11.92 159.441 11.8 159.489 11.68C159.537 11.56 159.561 11.404 159.561 11.212V10.024C159.561 9.688 159.561 9.316 159.561 8.908C159.561 8.476 159.573 7.984 159.597 7.432C159.621 6.352 159.633 5.632 159.633 5.272C159.657 4.912 159.693 4.66 159.741 4.516C159.765 4.276 159.825 4.084 159.921 3.94C160.041 3.796 160.101 3.556 160.101 3.22C160.101 3.196 160.053 3.124 159.957 3.004C159.885 2.884 159.789 2.728 159.669 2.536C159.597 2.44 159.549 2.32 159.525 2.176C159.501 2.032 159.489 1.9 159.489 1.78C159.513 1.636 159.525 1.516 159.525 1.42C159.549 1.324 159.561 1.048 159.561 0.591999C160.209 0.399998 160.869 0.303998 161.541 0.303998C162.213 0.303998 162.753 0.279999 163.161 0.231999C163.305 0.207999 163.413 0.183999 163.485 0.159998C163.581 0.135998 163.665 0.123998 163.737 0.123998C163.809 0.0999987 163.893 0.0879989 163.989 0.0879989C164.109 0.0639992 164.277 0.0519993 164.493 0.0519993C164.589 0.291999 164.721 0.555999 164.889 0.844C165.057 1.132 165.189 1.396 165.285 1.636C165.597 2.068 165.897 2.272 166.185 2.248C166.473 2.224 166.737 2.116 166.977 1.924C167.241 1.732 167.457 1.528 167.625 1.312C167.793 1.072 167.901 0.951998 167.949 0.951998L172.017 0.987998L175.113 3.112C175.233 3.232 175.389 3.376 175.581 3.544C175.773 3.688 175.977 3.892 176.193 4.156C176.673 4.66 177.033 4.9 177.273 4.876L178.137 6.136C178.089 6.208 177.981 6.424 177.813 6.784C177.669 7.12 177.453 7.6 177.165 8.224C176.613 9.52 176.337 10.528 176.337 11.248L175.617 11.68C175.137 11.872 174.897 12.364 174.897 13.156C174.489 13.108 173.817 13.264 172.881 13.624C172.617 13.744 172.329 13.828 172.017 13.876C171.705 13.9 171.417 13.924 171.153 13.948C170.985 13.972 170.817 13.984 170.649 13.984C170.505 13.984 170.349 13.984 170.181 13.984L169.785 14.884C169.497 14.668 169.173 14.524 168.813 14.452C168.453 14.38 168.093 14.356 167.733 14.38C167.397 14.404 167.073 14.452 166.761 14.524C166.449 14.596 166.185 14.68 165.969 14.776C165.177 15.064 164.769 15.208 164.745 15.208H164.529C164.553 15.232 164.565 15.268 164.565 15.316C164.517 15.556 164.433 15.844 164.313 16.18C164.217 16.492 164.169 16.708 164.169 16.828C164.169 16.972 164.181 17.176 164.205 17.44C164.229 17.68 164.253 18.004 164.277 18.412C164.301 18.796 164.313 19.12 164.313 19.384C164.337 19.648 164.349 19.852 164.349 19.996L164.493 20.968C164.541 21.16 164.577 21.352 164.601 21.544C164.625 21.712 164.661 21.892 164.709 22.084L164.133 23.38ZM165.465 4.084C165.465 4.276 165.465 4.504 165.465 4.768C165.489 5.032 165.513 5.332 165.537 5.668C165.657 7.156 165.693 8.044 165.645 8.332C165.165 8.62 164.877 9.052 164.781 9.628C164.709 9.94 164.637 10.24 164.565 10.528C164.493 10.792 164.409 11.02 164.313 11.212L164.241 11.284C164.241 11.548 164.241 11.74 164.241 11.86C164.265 11.98 164.277 12.124 164.277 12.292L164.961 12.76L165.645 12.58C165.645 13.108 166.293 13.096 167.589 12.544C168.861 12.016 169.581 11.752 169.749 11.752H171.261C171.453 11.488 171.681 11.212 171.945 10.924C172.209 10.612 172.341 10.42 172.341 10.348L172.809 7.72L172.593 6.82L167.805 3.4H166.221L165.465 4.084ZM175.905 23.452C175.857 23.236 175.713 23.092 175.473 23.02C175.377 22.924 175.341 22.792 175.365 22.624C175.389 22.456 175.365 22.348 175.293 22.3C175.269 22.252 175.245 22.228 175.221 22.228C175.197 22.228 175.161 22.216 175.113 22.192C175.089 22.144 175.017 22.06 174.897 21.94C174.825 21.844 174.741 21.748 174.645 21.652C174.549 21.532 174.441 21.376 174.321 21.184C174.057 20.848 173.853 20.584 173.709 20.392C173.565 20.176 173.457 20.044 173.385 19.996C173.289 19.948 173.145 19.852 172.953 19.708C172.761 19.564 172.629 19.48 172.557 19.456C172.485 19.384 172.425 19.3 172.377 19.204C172.329 19.108 172.281 19.036 172.233 18.988C172.185 18.94 172.125 18.772 172.053 18.484C171.981 18.196 171.909 17.944 171.837 17.728C171.573 17.488 171.177 17.056 170.649 16.432C170.481 16.264 170.385 16.156 170.361 16.108L170.829 15.424L172.557 16.288C172.581 16.312 172.701 16.312 172.917 16.288C173.157 16.264 173.409 16.252 173.673 16.252C173.937 16.228 174.189 16.228 174.429 16.252C174.693 16.276 174.861 16.348 174.933 16.468C175.029 16.588 175.149 16.672 175.293 16.72C175.437 16.768 175.581 16.816 175.725 16.864C175.893 16.888 176.025 16.912 176.121 16.936C176.241 16.96 176.313 17.008 176.337 17.08L177.057 18.412C177.153 18.532 177.321 18.736 177.561 19.024C177.825 19.288 178.173 19.66 178.605 20.14C179.469 21.148 179.913 21.664 179.937 21.688L179.829 22.948L176.949 23.776L175.905 23.452ZM202.571 23.056L201.311 23.272C201.023 23.32 200.723 23.32 200.411 23.272C200.099 23.224 199.775 23.2 199.439 23.2C199.367 23.2 199.259 23.2 199.115 23.2C198.971 23.2 198.803 23.2 198.611 23.2C198.443 23.2 198.275 23.212 198.107 23.236C197.939 23.236 197.795 23.236 197.675 23.236L196.883 22.696C196.955 22.216 196.931 21.868 196.811 21.652C196.715 21.436 196.643 21.232 196.595 21.04C196.547 20.896 196.451 20.668 196.307 20.356C196.163 20.044 196.031 19.684 195.911 19.276C195.911 19.204 195.791 18.988 195.551 18.628C195.311 18.268 195.119 17.944 194.975 17.656L194.543 17.836C194.423 17.836 194.291 17.872 194.147 17.944C194.003 18.016 193.643 18.052 193.067 18.052C192.995 17.908 192.875 17.812 192.707 17.764C192.539 17.692 192.347 17.68 192.131 17.728C191.939 17.752 191.735 17.824 191.519 17.944C191.327 18.064 191.159 18.208 191.015 18.376L189.539 18.592C189.443 18.376 189.335 18.208 189.215 18.088C189.119 17.944 189.011 17.812 188.891 17.692C188.795 17.572 188.711 17.44 188.639 17.296C188.567 17.152 188.531 16.96 188.531 16.72C189.011 16.6 189.287 16.444 189.359 16.252C189.455 16.06 189.527 15.976 189.575 16C189.719 16.072 189.851 16.108 189.971 16.108C189.803 16.108 189.755 16.084 189.827 16.036C189.899 15.988 190.223 15.868 190.799 15.676L193.427 15.352L193.967 15.748C194.351 15.844 194.639 15.868 194.831 15.82C195.023 15.772 195.155 15.688 195.227 15.568C195.299 15.424 195.335 15.268 195.335 15.1C195.359 14.932 195.383 14.788 195.407 14.668C195.455 14.404 195.395 14.188 195.227 14.02C195.083 13.828 194.879 13.66 194.615 13.516C194.567 13.252 194.471 12.952 194.327 12.616C194.207 12.256 194.051 11.836 193.859 11.356C193.691 10.9 193.535 10.42 193.391 9.916C193.271 9.388 193.163 8.908 193.067 8.476C192.971 8.044 192.899 7.684 192.851 7.396C192.803 7.108 192.767 6.94 192.743 6.892C192.407 6.676 192.131 6.664 191.915 6.856C191.699 7.024 191.519 7.276 191.375 7.612C191.255 7.948 191.171 8.308 191.123 8.692C191.099 9.052 191.099 9.304 191.123 9.448C191.099 9.496 191.039 9.58 190.943 9.7C190.847 9.796 190.739 9.904 190.619 10.024C190.499 10.144 190.391 10.264 190.295 10.384C190.199 10.48 190.139 10.552 190.115 10.6C190.019 10.768 189.995 10.948 190.043 11.14C190.091 11.332 190.055 11.5 189.935 11.644C189.455 12.508 188.891 13.192 188.243 13.696C188.075 13.84 187.943 14.044 187.847 14.308C187.751 14.572 187.691 14.848 187.667 15.136C187.643 15.424 187.667 15.712 187.739 16C187.811 16.264 187.943 16.48 188.135 16.648C187.895 16.792 187.703 16.948 187.559 17.116C187.439 17.26 187.331 17.428 187.235 17.62C187.163 17.788 187.091 17.98 187.019 18.196C186.947 18.388 186.863 18.604 186.767 18.844C186.359 19.924 186.155 20.488 186.155 20.536L185.651 21.58L185.183 23.488C185.207 23.848 185.075 24.064 184.787 24.136C184.523 24.208 184.091 24.244 183.491 24.244C182.915 24.388 182.411 24.46 181.979 24.46C181.547 24.436 181.403 24.208 181.547 23.776C182.171 22.288 182.627 21.184 182.915 20.464C183.227 19.72 183.383 19.156 183.383 18.772C183.383 18.652 183.431 18.556 183.527 18.484C183.647 18.388 183.743 18.316 183.815 18.268C183.839 18.22 183.923 17.968 184.067 17.512C184.235 17.056 184.415 16.552 184.607 16C184.799 15.424 184.979 14.884 185.147 14.38C185.339 13.852 185.483 13.492 185.579 13.3C185.795 12.844 186.047 12.328 186.335 11.752C186.647 11.176 187.007 10.624 187.415 10.096C187.631 9.808 187.811 9.412 187.955 8.908C188.123 8.404 188.279 7.852 188.423 7.252C188.567 6.652 188.723 6.04 188.891 5.416C189.059 4.792 189.275 4.216 189.539 3.688C189.683 3.64 190.103 3.112 190.799 2.104C190.847 2.056 190.883 2.008 190.907 1.96C190.955 1.888 191.003 1.828 191.051 1.78L195.659 1.492C195.755 1.612 195.863 1.756 195.983 1.924C196.103 2.092 196.235 2.272 196.379 2.464C196.835 3.04 197.111 3.496 197.207 3.832C197.303 4.168 197.363 4.396 197.387 4.516C197.339 4.588 197.591 5.404 198.143 6.964C198.287 7.348 198.407 7.78 198.503 8.26C198.599 8.74 198.671 9.196 198.719 9.628C198.767 10.036 198.791 10.396 198.791 10.708C198.791 10.996 198.779 11.152 198.755 11.176C198.707 11.2 199.091 11.5 199.907 12.076C200.099 12.22 200.207 12.352 200.231 12.472C200.279 12.592 200.279 12.7 200.231 12.796C200.207 12.892 200.159 12.976 200.087 13.048C200.015 13.12 199.979 13.168 199.979 13.192L200.951 14.488C200.951 14.488 201.227 15.532 201.779 17.62C202.091 18.628 202.319 19.492 202.463 20.212C202.607 20.908 202.679 21.448 202.679 21.832C202.679 21.88 202.691 21.916 202.715 21.94C202.715 21.916 202.739 21.976 202.787 22.12L202.571 23.056Z" fill="#272727"/>
<path d="M13.12 18.988L11.5 18.016L10.888 16.684L8.548 14.272L8.296 13.732L6.964 12.004L6.748 11.356L6.676 11.608C6.652 11.704 6.64 11.92 6.64 12.256C6.664 12.592 6.604 12.832 6.46 12.976C6.388 13.072 6.304 13.264 6.208 13.552C6.112 13.816 6.052 13.996 6.028 14.092L5.92 15.352C5.944 15.4 5.968 15.436 5.992 15.46C6.04 15.484 6.076 15.544 6.1 15.64C6.124 15.736 6.136 15.892 6.136 16.108C6.136 16.3 6.1 16.588 6.028 16.972C5.884 17.716 5.824 18.292 5.848 18.7C5.896 19.084 5.92 19.3 5.92 19.348C5.92 19.444 5.932 19.636 5.956 19.924C6.004 20.188 5.98 20.56 5.884 21.04C5.764 21.952 5.74 22.684 5.812 23.236L5.416 23.452C5.32 23.428 5.176 23.416 4.984 23.416C4.792 23.416 4.576 23.428 4.336 23.452C4.12 23.452 3.892 23.464 3.652 23.488C3.412 23.488 3.208 23.488 3.04 23.488H2.572L1.06 23.848L0.124 23.344C0.124 22.96 0.172 22.528 0.268 22.048C0.34 21.568 0.4 21.148 0.448 20.788C0.496 20.428 0.52 20.152 0.52 19.96C0.52 19.912 0.496 19.804 0.448 19.636C0.4 19.444 0.364 19.312 0.34 19.24L0.592 13.804C0.664 13.804 0.712 13.72 0.736 13.552C0.76 13.384 0.772 13.204 0.772 13.012C0.772 12.82 0.76 12.64 0.736 12.472C0.712 12.28 0.688 12.16 0.664 12.112C0.64 12.088 0.652 11.992 0.7 11.824C0.772 11.656 0.856 11.476 0.952 11.284L1.204 10.744C1.252 10.648 1.288 10.588 1.312 10.564C1.36 10.516 1.396 10.48 1.42 10.456C1.468 10.312 1.48 10.192 1.456 10.096C1.432 10 1.396 9.892 1.348 9.772C1.324 9.652 1.3 9.484 1.276 9.268C1.252 9.052 1.264 8.74 1.312 8.332C1.408 7.516 1.48 6.844 1.528 6.316C1.6 5.764 1.636 5.416 1.636 5.272V4.444C1.588 4.228 1.564 4.024 1.564 3.832C1.588 3.616 1.492 3.448 1.276 3.328L1.312 2.86C1.408 2.644 1.78 2.536 2.428 2.536H4.336C4.48 2.536 4.66 2.464 4.876 2.32C5.116 2.176 5.38 2.092 5.668 2.068C5.788 2.02 5.932 1.96 6.1 1.888C6.268 1.792 6.388 1.744 6.46 1.744C6.556 1.744 6.676 1.768 6.82 1.816C6.988 1.864 7.156 1.96 7.324 2.104V2.86L9.268 6.712L9.844 9.736L11.068 11.716L12.22 14.236L12.76 14.38L13.948 13.3C13.996 13.18 14.044 13.048 14.092 12.904C14.164 12.76 14.248 12.628 14.344 12.508C14.488 12.268 14.656 12.004 14.848 11.716C15.064 11.428 15.316 11.116 15.604 10.78C16.756 9.532 17.26 8.68 17.116 8.224L18.664 5.704C19.072 5.872 19.408 5.836 19.672 5.596C19.96 5.332 20.164 4.744 20.284 3.832C20.284 3.784 20.272 3.712 20.248 3.616C20.224 3.496 20.188 3.388 20.14 3.292C20.452 3.148 20.632 3.004 20.68 2.86C20.728 2.716 20.752 2.5 20.752 2.212C21.04 2.092 21.292 2.02 21.508 1.996C21.748 1.948 22 1.888 22.264 1.816L24.712 3.292C24.688 3.508 24.664 3.736 24.64 3.976C24.616 4.216 24.58 4.468 24.532 4.732C24.484 5.068 24.436 5.428 24.388 5.812C24.34 6.172 24.292 6.532 24.244 6.892C24.22 7.228 24.184 7.54 24.136 7.828C24.112 8.116 24.088 8.344 24.064 8.512C24.016 8.752 23.968 9.172 23.92 9.772C23.872 10.348 23.812 11.14 23.74 12.148C23.668 14.14 23.92 15.292 24.496 15.604C24.496 15.772 24.484 16.144 24.46 16.72C24.46 17.296 24.448 18.124 24.424 19.204C24.4 19.732 24.388 20.2 24.388 20.608C24.388 21.016 24.388 21.376 24.388 21.688V22.804C23.74 22.972 23.056 23.128 22.336 23.272C21.64 23.416 21.088 23.488 20.68 23.488C20.512 23.488 20.344 23.428 20.176 23.308C20.008 23.188 19.9 22.996 19.852 22.732C20.02 22.588 20.104 22.516 20.104 22.516C20.128 22.516 20.08 22.456 19.96 22.336V18.088L20.212 17.512H19.96V15.856C19.96 15.592 19.948 15.232 19.924 14.776C19.9 14.32 19.864 13.744 19.816 13.048C19.744 12.352 19.696 11.824 19.672 11.464C19.648 11.08 19.636 10.864 19.636 10.816C19.636 10.744 19.696 10.588 19.816 10.348C19.96 10.084 20.092 9.868 20.212 9.7C20.26 9.58 20.272 9.46 20.248 9.34C20.248 9.196 20.26 9.076 20.284 8.98C20.284 8.884 20.332 8.8 20.428 8.728C20.548 8.632 20.632 8.56 20.68 8.512C20.632 8.368 20.572 8.212 20.5 8.044C20.452 7.876 20.428 7.768 20.428 7.72C19.276 7.192 18.928 7.588 19.384 8.908L18.556 10.708L16.072 14.38L13.84 18.664L13.12 18.988ZM48.321 23.056L47.061 23.272C46.773 23.32 46.473 23.32 46.161 23.272C45.849 23.224 45.525 23.2 45.189 23.2C45.117 23.2 45.009 23.2 44.865 23.2C44.721 23.2 44.553 23.2 44.361 23.2C44.193 23.2 44.025 23.212 43.857 23.236C43.689 23.236 43.545 23.236 43.425 23.236L42.633 22.696C42.705 22.216 42.681 21.868 42.561 21.652C42.465 21.436 42.393 21.232 42.345 21.04C42.297 20.896 42.201 20.668 42.057 20.356C41.913 20.044 41.781 19.684 41.661 19.276C41.661 19.204 41.541 18.988 41.301 18.628C41.061 18.268 40.869 17.944 40.725 17.656L40.293 17.836C40.173 17.836 40.041 17.872 39.897 17.944C39.753 18.016 39.393 18.052 38.817 18.052C38.745 17.908 38.625 17.812 38.457 17.764C38.289 17.692 38.097 17.68 37.881 17.728C37.689 17.752 37.485 17.824 37.269 17.944C37.077 18.064 36.909 18.208 36.765 18.376L35.289 18.592C35.193 18.376 35.085 18.208 34.965 18.088C34.869 17.944 34.761 17.812 34.641 17.692C34.545 17.572 34.461 17.44 34.389 17.296C34.317 17.152 34.281 16.96 34.281 16.72C34.761 16.6 35.037 16.444 35.109 16.252C35.205 16.06 35.277 15.976 35.325 16C35.469 16.072 35.601 16.108 35.721 16.108C35.553 16.108 35.505 16.084 35.577 16.036C35.649 15.988 35.973 15.868 36.549 15.676L39.177 15.352L39.717 15.748C40.101 15.844 40.389 15.868 40.581 15.82C40.773 15.772 40.905 15.688 40.977 15.568C41.049 15.424 41.085 15.268 41.085 15.1C41.109 14.932 41.133 14.788 41.157 14.668C41.205 14.404 41.145 14.188 40.977 14.02C40.833 13.828 40.629 13.66 40.365 13.516C40.317 13.252 40.221 12.952 40.077 12.616C39.957 12.256 39.801 11.836 39.609 11.356C39.441 10.9 39.285 10.42 39.141 9.916C39.021 9.388 38.913 8.908 38.817 8.476C38.721 8.044 38.649 7.684 38.601 7.396C38.553 7.108 38.517 6.94 38.493 6.892C38.157 6.676 37.881 6.664 37.665 6.856C37.449 7.024 37.269 7.276 37.125 7.612C37.005 7.948 36.921 8.308 36.873 8.692C36.849 9.052 36.849 9.304 36.873 9.448C36.849 9.496 36.789 9.58 36.693 9.7C36.597 9.796 36.489 9.904 36.369 10.024C36.249 10.144 36.141 10.264 36.045 10.384C35.949 10.48 35.889 10.552 35.865 10.6C35.769 10.768 35.745 10.948 35.793 11.14C35.841 11.332 35.805 11.5 35.685 11.644C35.205 12.508 34.641 13.192 33.993 13.696C33.825 13.84 33.693 14.044 33.597 14.308C33.501 14.572 33.441 14.848 33.417 15.136C33.393 15.424 33.417 15.712 33.489 16C33.561 16.264 33.693 16.48 33.885 16.648C33.645 16.792 33.453 16.948 33.309 17.116C33.189 17.26 33.081 17.428 32.985 17.62C32.913 17.788 32.841 17.98 32.769 18.196C32.697 18.388 32.613 18.604 32.517 18.844C32.109 19.924 31.905 20.488 31.905 20.536L31.401 21.58L30.933 23.488C30.957 23.848 30.825 24.064 30.537 24.136C30.273 24.208 29.841 24.244 29.241 24.244C28.665 24.388 28.161 24.46 27.729 24.46C27.297 24.436 27.153 24.208 27.297 23.776C27.921 22.288 28.377 21.184 28.665 20.464C28.977 19.72 29.133 19.156 29.133 18.772C29.133 18.652 29.181 18.556 29.277 18.484C29.397 18.388 29.493 18.316 29.565 18.268C29.589 18.22 29.673 17.968 29.817 17.512C29.985 17.056 30.165 16.552 30.357 16C30.549 15.424 30.729 14.884 30.897 14.38C31.089 13.852 31.233 13.492 31.329 13.3C31.545 12.844 31.797 12.328 32.085 11.752C32.397 11.176 32.757 10.624 33.165 10.096C33.381 9.808 33.561 9.412 33.705 8.908C33.873 8.404 34.029 7.852 34.173 7.252C34.317 6.652 34.473 6.04 34.641 5.416C34.809 4.792 35.025 4.216 35.289 3.688C35.433 3.64 35.853 3.112 36.549 2.104C36.597 2.056 36.633 2.008 36.657 1.96C36.705 1.888 36.753 1.828 36.801 1.78L41.409 1.492C41.505 1.612 41.613 1.756 41.733 1.924C41.853 2.092 41.985 2.272 42.129 2.464C42.585 3.04 42.861 3.496 42.957 3.832C43.053 4.168 43.113 4.396 43.137 4.516C43.089 4.588 43.341 5.404 43.893 6.964C44.037 7.348 44.157 7.78 44.253 8.26C44.349 8.74 44.421 9.196 44.469 9.628C44.517 10.036 44.541 10.396 44.541 10.708C44.541 10.996 44.529 11.152 44.505 11.176C44.457 11.2 44.841 11.5 45.657 12.076C45.849 12.22 45.957 12.352 45.981 12.472C46.029 12.592 46.029 12.7 45.981 12.796C45.957 12.892 45.909 12.976 45.837 13.048C45.765 13.12 45.729 13.168 45.729 13.192L46.701 14.488C46.701 14.488 46.977 15.532 47.529 17.62C47.841 18.628 48.069 19.492 48.213 20.212C48.357 20.908 48.429 21.448 48.429 21.832C48.429 21.88 48.441 21.916 48.465 21.94C48.465 21.916 48.489 21.976 48.537 22.12L48.321 23.056Z" fill="#DF6951"/>
</svg>
